<svg xmlns="http://www.w3.org/2000/svg" viewBox="0 0 192.756 192.756" shape-rendering="geometricPrecision" text-rendering="geometricPrecision"><g transform="matrix(.98239 0 0 .97967 -4.213 37.1)" clip-rule="evenodd"><path style="mix-blend-mode:hard-light" d="m54.761 119.955-9.646 26.711h9.027l.866-3.463h8.697l.866 3.463h9.027l-9.563-26.711h-9.274Zm1.937 17.684 2.597-8.697 2.638 8.697h-5.235Zm18.92-17.684v26.711h20.857v-6.349H84.398v-20.362h-8.78Zm22.876 0v26.711h22.383l.906-6.349h-14.178v-3.874h10.717v-6.347h-10.717v-3.545h12.737v-6.596H98.494Zm23.826 0 8.78 13.025-9.317 13.686h9.895l4.287-7.255 4.08 7.255h10.223l-9.317-13.686 10.223-13.025h-10.223l-4.699 6.596-3.75-6.596H122.32Z" transform="translate(.414 -72.752)" opacity=".77" paint-order="stroke fill markers" fill="#2528d1" fill-rule="evenodd"/><path d="M99.735-23.545c30.481-.027 55.377 37.754 55.419 84.105s-24.786 84.178-55.267 84.205c-30.483.027-55.378-37.755-55.42-84.106s24.785-84.176 55.268-84.204Zm-.002-2.525c31.397-.029 46.826 36.052 56.202 86.298 8.573 45.94-24.65 87.034-56.046 87.062s-57.04-38.886-57.082-86.63C42.764 12.92 69.7-23.544 99.733-26.07Z" fill="#7566d5" fill-rule="evenodd"/><path d="M167 106.498c-14.702 27.177-61.067 22.809-99.46-3.16S11.2 36.425 27.588 12.197c16.388-24.228 55.143-26.093 99.461 3.16s67.105 73.827 39.951 91.14Zm2.092 1.415c-40.018 16.777-62.9 23.494-102.445-3.255-39.546-26.75-43.243-72.3-41.151-93.875s54.344-23.16 102.446 3.256c43.091 23.665 52.648 74.274 41.15 93.874Z" fill="#0074bd" fill-rule="evenodd"/><path d="M149.93-11.56c28.399 9.834 22.997 60.996-2.854 99.47s-66.736 56.546-91.015 40.233c-24.279-16.313-26.263-55.062 2.853-99.47S125.65-27.875 149.93-11.56Zm1.408-2.097c16.9 39.966 23.688 62.828-2.938 102.455-26.627 39.629-68.74 58.244-93.747 41.441S24.786 60.715 57.592 27.784C91.59-6.344 126.33-30.46 151.338-13.656Z" fill="#61dafb" fill-rule="evenodd"/><path d="M184.832 57.801c7.941 28.986-37.316 53.45-83.665 53.875S16.797 88.589 16.53 59.34c-.268-29.249 30.574-52.79 83.666-53.874s84.369 23.086 84.636 52.335Zm2.526-.023c-23.414 36.533-38.436 55.055-86.176 55.492-47.741.437-86.902-23.78-87.178-53.906S54.472-4.574 100.181 3.873c47.37 8.753 86.901 23.778 87.177 53.905Z" fill="#ff9d00" fill-rule="evenodd"/><path d="M495.92 132.949c-28.4-9.835-22.997-60.996 2.853-99.47s66.737-56.546 91.015-40.233c24.28 16.313 26.264 55.062-2.853 99.47S520.2 149.263 495.92 132.95Zm-1.408 2.096c-16.9-39.965-23.689-62.827 2.938-102.455 26.626-39.628 68.739-58.244 93.747-41.44s29.866 69.523-2.94 102.455c-33.997 34.128-68.738 58.243-93.745 41.44Z" fill="#d5d066" fill-rule="evenodd"/><ellipse rx="3.03" ry="3.022" transform="translate(185.826 60.909)" fill="#f40000"/><ellipse rx="3.03" ry="3.022" transform="translate(66.41 20.079)" fill="#f40000"/><ellipse rx="3.03" ry="3.022" transform="translate(59.418 -5.425)" fill="#f40000"/><ellipse rx="3.03" ry="3.022" transform="translate(165.15 50.701)" fill="#ff0209"/><ellipse rx="3.03" ry="3.022" transform="translate(71.5 108.884)" fill="#f40000"/><ellipse rx="3.03" ry="3.022" transform="translate(152.934 -9.523)" fill="#f40000"/><ellipse rx="3.03" ry="3.022" transform="translate(15.514 57.847)" fill="#ea2d2e"/><ellipse rx="3.03" ry="3.022" transform="translate(110.181 5.788)" fill="#f40000"/><ellipse rx="3.03" ry="3.022" transform="translate(114.253 122.154)" fill="#f40000"/><ellipse rx="3.03" ry="3.022" transform="translate(168.522 106.842)" fill="#f40000"/></g></svg>